<mxfile host="app.diagrams.net" modified="2021-06-10T01:48:40.079Z" agent="5.0 (Windows NT 10.0; Win64; x64) AppleWebKit/537.36 (KHTML, like Gecko) Chrome/91.0.4472.77 Safari/537.36" etag="aeRCwVI-grLykCmfmAOq" version="14.7.6" type="github">
  <diagram name="Page-1" id="c4acf3e9-155e-7222-9cf6-157b1a14988f">
    <mxGraphModel dx="1694" dy="805" grid="0" gridSize="10" guides="1" tooltips="1" connect="1" arrows="1" fold="1" page="1" pageScale="1" pageWidth="850" pageHeight="1100" background="#114B5F" math="0" shadow="0">
      <root>
        <mxCell id="0" />
        <mxCell id="1" parent="0" />
        <mxCell id="Q_LaTC8-RJTo9dfhqVQh-1" value="ICourse" style="swimlane;fontStyle=0;childLayout=stackLayout;horizontal=1;startSize=26;horizontalStack=0;resizeParent=1;resizeParentMax=0;resizeLast=0;collapsible=1;marginBottom=0;rounded=0;sketch=0;fontColor=#E4FDE1;strokeColor=#028090;fillColor=#00CC66;fontSize=21;" vertex="1" parent="1">
          <mxGeometry x="296" y="64" width="267" height="162" as="geometry" />
        </mxCell>
        <mxCell id="Q_LaTC8-RJTo9dfhqVQh-2" value="&lt;p style=&quot;line-height: 120%&quot;&gt;getCourseName()&amp;nbsp; &amp;nbsp; String&lt;br style=&quot;font-size: 19px&quot;&gt;getCourseVideo()&amp;nbsp; &amp;nbsp; &amp;nbsp;byte[]&lt;br&gt;studyCourse()&amp;nbsp; &amp;nbsp; &amp;nbsp; &amp;nbsp; &amp;nbsp; void&lt;br&gt;refundCourse()&amp;nbsp; &amp;nbsp; &amp;nbsp; &amp;nbsp; &amp;nbsp;void&amp;nbsp;&amp;nbsp;&lt;br&gt;&lt;br style=&quot;font-size: 19px&quot;&gt;&lt;br style=&quot;font-size: 19px&quot;&gt;&lt;/p&gt;" style="text;align=left;verticalAlign=top;spacingLeft=12;spacingRight=4;overflow=hidden;rotatable=0;points=[[0,0.5],[1,0.5]];portConstraint=eastwest;fontSize=19;fontColor=#FFFFFF;spacingTop=-4;spacingBottom=6;spacing=7;html=1;labelBorderColor=none;horizontal=1;" vertex="1" parent="Q_LaTC8-RJTo9dfhqVQh-1">
          <mxGeometry y="26" width="267" height="136" as="geometry" />
        </mxCell>
        <mxCell id="Q_LaTC8-RJTo9dfhqVQh-7" value="ICourseInfo" style="swimlane;fontStyle=0;childLayout=stackLayout;horizontal=1;startSize=26;horizontalStack=0;resizeParent=1;resizeParentMax=0;resizeLast=0;collapsible=1;marginBottom=0;rounded=0;sketch=0;fontColor=#E4FDE1;strokeColor=#028090;fillColor=#00CC66;fontSize=21;" vertex="1" parent="1">
          <mxGeometry x="136" y="308" width="267" height="123" as="geometry" />
        </mxCell>
        <mxCell id="Q_LaTC8-RJTo9dfhqVQh-8" value="&lt;p style=&quot;line-height: 120%&quot;&gt;getCourseName()&amp;nbsp; &amp;nbsp; String&lt;br style=&quot;font-size: 19px&quot;&gt;getCourseVideo()&amp;nbsp; &amp;nbsp; &amp;nbsp;bytep[]&lt;br&gt;&lt;br&gt;&lt;br style=&quot;font-size: 19px&quot;&gt;&lt;br style=&quot;font-size: 19px&quot;&gt;&lt;/p&gt;" style="text;align=left;verticalAlign=top;spacingLeft=12;spacingRight=4;overflow=hidden;rotatable=0;points=[[0,0.5],[1,0.5]];portConstraint=eastwest;fontSize=19;fontColor=#FFFFFF;spacingTop=-4;spacingBottom=6;spacing=7;html=1;labelBorderColor=none;horizontal=1;" vertex="1" parent="Q_LaTC8-RJTo9dfhqVQh-7">
          <mxGeometry y="26" width="267" height="97" as="geometry" />
        </mxCell>
        <mxCell id="Q_LaTC8-RJTo9dfhqVQh-9" value="ICourseManager" style="swimlane;fontStyle=0;childLayout=stackLayout;horizontal=1;startSize=26;horizontalStack=0;resizeParent=1;resizeParentMax=0;resizeLast=0;collapsible=1;marginBottom=0;rounded=0;sketch=0;fontColor=#E4FDE1;strokeColor=#028090;fillColor=#00CC66;fontSize=21;" vertex="1" parent="1">
          <mxGeometry x="476" y="307" width="267" height="124" as="geometry" />
        </mxCell>
        <mxCell id="Q_LaTC8-RJTo9dfhqVQh-10" value="&lt;p style=&quot;line-height: 120%&quot;&gt;studyCourse()&amp;nbsp; &amp;nbsp; &amp;nbsp;void&lt;br&gt;refundCourse()&amp;nbsp; &amp;nbsp; void&lt;br&gt;&lt;br style=&quot;font-size: 19px&quot;&gt;&lt;br style=&quot;font-size: 19px&quot;&gt;&lt;/p&gt;" style="text;align=left;verticalAlign=top;spacingLeft=12;spacingRight=4;overflow=hidden;rotatable=0;points=[[0,0.5],[1,0.5]];portConstraint=eastwest;fontSize=19;fontColor=#FFFFFF;spacingTop=-4;spacingBottom=6;spacing=7;html=1;labelBorderColor=none;horizontal=1;" vertex="1" parent="Q_LaTC8-RJTo9dfhqVQh-9">
          <mxGeometry y="26" width="267" height="98" as="geometry" />
        </mxCell>
        <mxCell id="Q_LaTC8-RJTo9dfhqVQh-13" value="" style="shape=waypoint;sketch=0;size=6;pointerEvents=1;points=[];fillColor=#00CC66;resizable=0;rotatable=0;perimeter=centerPerimeter;snapToPoint=1;rounded=0;fontSize=21;fontColor=#E4FDE1;fontStyle=0;strokeColor=#028090;startSize=26;" vertex="1" parent="1">
          <mxGeometry x="469" y="415" width="267" height="40" as="geometry" />
        </mxCell>
        <mxCell id="Q_LaTC8-RJTo9dfhqVQh-16" value="" style="edgeStyle=orthogonalEdgeStyle;curved=0;rounded=1;sketch=0;orthogonalLoop=1;jettySize=auto;html=1;fontSize=21;fontColor=#FFFFFF;strokeColor=#028090;fillColor=#F45B69;dashed=1;endArrow=block;endFill=0;exitX=0.5;exitY=0;exitDx=0;exitDy=0;" edge="1" parent="1" source="Q_LaTC8-RJTo9dfhqVQh-19">
          <mxGeometry relative="1" as="geometry">
            <mxPoint x="430" y="588" as="sourcePoint" />
            <mxPoint x="282" y="431" as="targetPoint" />
            <Array as="points">
              <mxPoint x="416" y="588" />
              <mxPoint x="394" y="588" />
              <mxPoint x="394" y="517" />
              <mxPoint x="282" y="517" />
            </Array>
          </mxGeometry>
        </mxCell>
        <mxCell id="Q_LaTC8-RJTo9dfhqVQh-17" value="" style="edgeStyle=orthogonalEdgeStyle;curved=0;rounded=1;sketch=0;orthogonalLoop=1;jettySize=auto;html=1;fontSize=21;fontColor=#FFFFFF;strokeColor=#028090;fillColor=#F45B69;dashed=1;endArrow=block;endFill=0;strokeWidth=1;exitX=0.776;exitY=0.005;exitDx=0;exitDy=0;exitPerimeter=0;" edge="1" parent="1" source="Q_LaTC8-RJTo9dfhqVQh-19" target="Q_LaTC8-RJTo9dfhqVQh-13">
          <mxGeometry relative="1" as="geometry">
            <mxPoint x="476" y="596" as="sourcePoint" />
            <mxPoint x="408" y="445" as="targetPoint" />
            <Array as="points">
              <mxPoint x="441" y="603" />
              <mxPoint x="441" y="510" />
              <mxPoint x="603" y="510" />
            </Array>
          </mxGeometry>
        </mxCell>
        <mxCell id="Q_LaTC8-RJTo9dfhqVQh-19" value="CourseImpl" style="swimlane;fontStyle=0;childLayout=stackLayout;horizontal=1;startSize=26;horizontalStack=0;resizeParent=1;resizeParentMax=0;resizeLast=0;collapsible=1;marginBottom=0;rounded=0;sketch=0;fontColor=#E4FDE1;strokeColor=#028090;fillColor=#00CC66;fontSize=21;" vertex="1" parent="1">
          <mxGeometry x="272" y="584" width="267" height="162" as="geometry" />
        </mxCell>
        <mxCell id="Q_LaTC8-RJTo9dfhqVQh-20" value="&lt;p style=&quot;line-height: 120%&quot;&gt;getCourseName()&amp;nbsp; &amp;nbsp; String&lt;br style=&quot;font-size: 19px&quot;&gt;getCourseVideo()&amp;nbsp; &amp;nbsp; &amp;nbsp;byte[]&lt;br&gt;studyCourse()&amp;nbsp; &amp;nbsp; &amp;nbsp; &amp;nbsp; &amp;nbsp; void&lt;br&gt;refundCourse()&amp;nbsp; &amp;nbsp; &amp;nbsp; &amp;nbsp; &amp;nbsp;void&amp;nbsp;&amp;nbsp;&lt;br&gt;&lt;br style=&quot;font-size: 19px&quot;&gt;&lt;br style=&quot;font-size: 19px&quot;&gt;&lt;/p&gt;" style="text;align=left;verticalAlign=top;spacingLeft=12;spacingRight=4;overflow=hidden;rotatable=0;points=[[0,0.5],[1,0.5]];portConstraint=eastwest;fontSize=19;fontColor=#FFFFFF;spacingTop=-4;spacingBottom=6;spacing=7;html=1;labelBorderColor=none;horizontal=1;" vertex="1" parent="Q_LaTC8-RJTo9dfhqVQh-19">
          <mxGeometry y="26" width="267" height="136" as="geometry" />
        </mxCell>
      </root>
    </mxGraphModel>
  </diagram>
</mxfile>
